<mxfile host="app.diagrams.net" agent="Mozilla/5.0 (X11; Linux x86_64) AppleWebKit/537.36 (KHTML, like Gecko) Chrome/135.0.0.0 Safari/537.36" version="26.2.14" pages="2">
  <diagram name="Page-1" id="2a216829-ef6e-dabb-86c1-c78162f3ba2b">
    <mxGraphModel dx="2078" dy="1223" grid="1" gridSize="10" guides="1" tooltips="1" connect="1" arrows="1" fold="1" page="1" pageScale="1" pageWidth="850" pageHeight="1100" background="none" math="0" shadow="0">
      <root>
        <mxCell id="0" />
        <mxCell id="1" parent="0" />
        <mxCell id="y4_CQmr4rHinZZHA0CCV-175" value="Dispatcher" style="swimlane;html=1;startSize=20;fontStyle=0;collapsible=0;horizontal=0;swimlaneLine=1;swimlaneFillColor=#ffffff;strokeWidth=2;whiteSpace=wrap;" vertex="1" parent="1">
          <mxGeometry y="600" width="1800" height="240" as="geometry" />
        </mxCell>
        <mxCell id="y4_CQmr4rHinZZHA0CCV-10" value="" style="shape=mxgraph.bpmn.shape;html=1;verticalLabelPosition=bottom;labelBackgroundColor=#ffffff;verticalAlign=top;perimeter=ellipsePerimeter;outline=standard;symbol=general;" vertex="1" parent="1">
          <mxGeometry x="70" y="694.25" width="57.5" height="57.5" as="geometry" />
        </mxCell>
        <mxCell id="y4_CQmr4rHinZZHA0CCV-11" style="edgeStyle=orthogonalEdgeStyle;rounded=0;html=1;jettySize=auto;orthogonalLoop=1;" edge="1" source="y4_CQmr4rHinZZHA0CCV-10" parent="1">
          <mxGeometry relative="1" as="geometry">
            <mxPoint x="180" y="723" as="targetPoint" />
            <Array as="points" />
          </mxGeometry>
        </mxCell>
        <mxCell id="y4_CQmr4rHinZZHA0CCV-31" value="" style="group" vertex="1" connectable="0" parent="1">
          <mxGeometry x="1380" y="743" width="120" height="80" as="geometry" />
        </mxCell>
        <mxCell id="y4_CQmr4rHinZZHA0CCV-32" value="Billing Process &amp;amp; Close Ticket" style="shape=ext;rounded=1;html=1;whiteSpace=wrap;" vertex="1" parent="y4_CQmr4rHinZZHA0CCV-31">
          <mxGeometry width="120" height="80" as="geometry" />
        </mxCell>
        <mxCell id="y4_CQmr4rHinZZHA0CCV-33" value="" style="shape=message;whiteSpace=wrap;html=1;" vertex="1" parent="y4_CQmr4rHinZZHA0CCV-31">
          <mxGeometry x="10" y="5" width="20" height="15" as="geometry" />
        </mxCell>
        <mxCell id="y4_CQmr4rHinZZHA0CCV-50" style="edgeStyle=orthogonalEdgeStyle;rounded=0;orthogonalLoop=1;jettySize=auto;html=1;entryX=0;entryY=0.5;entryDx=0;entryDy=0;" edge="1" parent="1" source="y4_CQmr4rHinZZHA0CCV-43" target="y4_CQmr4rHinZZHA0CCV-48">
          <mxGeometry relative="1" as="geometry">
            <Array as="points">
              <mxPoint x="520" y="663" />
            </Array>
          </mxGeometry>
        </mxCell>
        <mxCell id="y4_CQmr4rHinZZHA0CCV-43" value="" style="shape=mxgraph.bpmn.shape;html=1;verticalLabelPosition=bottom;labelBackgroundColor=#ffffff;verticalAlign=top;perimeter=rhombusPerimeter;background=gateway;outline=none;symbol=parallelGw;" vertex="1" parent="1">
          <mxGeometry x="500" y="703" width="40" height="40" as="geometry" />
        </mxCell>
        <mxCell id="y4_CQmr4rHinZZHA0CCV-46" style="edgeStyle=orthogonalEdgeStyle;rounded=0;orthogonalLoop=1;jettySize=auto;html=1;entryX=0;entryY=0.5;entryDx=0;entryDy=0;" edge="1" parent="1" source="y4_CQmr4rHinZZHA0CCV-43">
          <mxGeometry relative="1" as="geometry">
            <mxPoint x="580" y="783.0000000000002" as="targetPoint" />
            <Array as="points">
              <mxPoint x="520" y="783" />
            </Array>
          </mxGeometry>
        </mxCell>
        <mxCell id="y4_CQmr4rHinZZHA0CCV-54" value="" style="shape=mxgraph.bpmn.shape;html=1;verticalLabelPosition=bottom;labelBackgroundColor=#ffffff;verticalAlign=top;perimeter=ellipsePerimeter;outline=end;symbol=general;" vertex="1" parent="1">
          <mxGeometry x="1540" y="758" width="50" height="50" as="geometry" />
        </mxCell>
        <mxCell id="y4_CQmr4rHinZZHA0CCV-55" style="edgeStyle=orthogonalEdgeStyle;rounded=0;orthogonalLoop=1;jettySize=auto;html=1;entryX=0;entryY=0.5;entryDx=0;entryDy=0;" edge="1" parent="1" source="y4_CQmr4rHinZZHA0CCV-32" target="y4_CQmr4rHinZZHA0CCV-54">
          <mxGeometry relative="1" as="geometry" />
        </mxCell>
        <mxCell id="y4_CQmr4rHinZZHA0CCV-63" value="" style="group" vertex="1" connectable="0" parent="1">
          <mxGeometry x="180" y="683" width="120" height="80" as="geometry" />
        </mxCell>
        <mxCell id="y4_CQmr4rHinZZHA0CCV-64" value="Receive Repair Request" style="shape=ext;rounded=1;html=1;whiteSpace=wrap;" vertex="1" parent="y4_CQmr4rHinZZHA0CCV-63">
          <mxGeometry width="120" height="80" as="geometry" />
        </mxCell>
        <mxCell id="y4_CQmr4rHinZZHA0CCV-65" value="" style="shape=message;whiteSpace=wrap;html=1;" vertex="1" parent="y4_CQmr4rHinZZHA0CCV-63">
          <mxGeometry x="10" y="5" width="20" height="15" as="geometry" />
        </mxCell>
        <mxCell id="y4_CQmr4rHinZZHA0CCV-68" style="edgeStyle=orthogonalEdgeStyle;rounded=0;orthogonalLoop=1;jettySize=auto;html=1;" edge="1" parent="1" source="y4_CQmr4rHinZZHA0CCV-64">
          <mxGeometry relative="1" as="geometry">
            <mxPoint x="340" y="723" as="targetPoint" />
          </mxGeometry>
        </mxCell>
        <mxCell id="y4_CQmr4rHinZZHA0CCV-75" value="Customer" style="swimlane;html=1;startSize=20;fontStyle=0;collapsible=0;horizontal=0;swimlaneLine=1;swimlaneFillColor=#ffffff;strokeWidth=2;whiteSpace=wrap;" vertex="1" parent="1">
          <mxGeometry y="280" width="1800" height="210" as="geometry" />
        </mxCell>
        <mxCell id="y4_CQmr4rHinZZHA0CCV-118" style="edgeStyle=orthogonalEdgeStyle;rounded=0;orthogonalLoop=1;jettySize=auto;html=1;entryX=0;entryY=0.5;entryDx=0;entryDy=0;" edge="1" parent="y4_CQmr4rHinZZHA0CCV-75" source="y4_CQmr4rHinZZHA0CCV-95" target="y4_CQmr4rHinZZHA0CCV-100">
          <mxGeometry relative="1" as="geometry" />
        </mxCell>
        <mxCell id="y4_CQmr4rHinZZHA0CCV-95" value="Send Repair&amp;nbsp;&lt;div&gt;Request&lt;/div&gt;" style="points=[[0.25,0,0],[0.5,0,0],[0.75,0,0],[1,0.25,0],[1,0.5,0],[1,0.75,0],[0.75,1,0],[0.5,1,0],[0.25,1,0],[0,0.75,0],[0,0.5,0],[0,0.25,0]];shape=mxgraph.bpmn.task2;whiteSpace=wrap;rectStyle=rounded;size=10;html=1;container=1;expand=0;collapsible=0;taskMarker=send;" vertex="1" parent="y4_CQmr4rHinZZHA0CCV-75">
          <mxGeometry x="180" y="10" width="120" height="80" as="geometry" />
        </mxCell>
        <mxCell id="y4_CQmr4rHinZZHA0CCV-121" style="edgeStyle=orthogonalEdgeStyle;rounded=0;orthogonalLoop=1;jettySize=auto;html=1;" edge="1" parent="y4_CQmr4rHinZZHA0CCV-75" source="y4_CQmr4rHinZZHA0CCV-98" target="y4_CQmr4rHinZZHA0CCV-99">
          <mxGeometry relative="1" as="geometry" />
        </mxCell>
        <mxCell id="y4_CQmr4rHinZZHA0CCV-98" value="Receive&amp;nbsp;&lt;div&gt;Appointment&lt;/div&gt;" style="points=[[0.25,0,0],[0.5,0,0],[0.75,0,0],[1,0.25,0],[1,0.5,0],[1,0.75,0],[0.75,1,0],[0.5,1,0],[0.25,1,0],[0,0.75,0],[0,0.5,0],[0,0.25,0]];shape=mxgraph.bpmn.task2;whiteSpace=wrap;rectStyle=rounded;size=10;html=1;container=1;expand=0;collapsible=0;taskMarker=receive;" vertex="1" parent="y4_CQmr4rHinZZHA0CCV-75">
          <mxGeometry x="740" y="10" width="120" height="80" as="geometry" />
        </mxCell>
        <mxCell id="y4_CQmr4rHinZZHA0CCV-129" style="edgeStyle=orthogonalEdgeStyle;rounded=0;orthogonalLoop=1;jettySize=auto;html=1;entryX=0;entryY=0.5;entryDx=0;entryDy=0;" edge="1" parent="y4_CQmr4rHinZZHA0CCV-75" source="y4_CQmr4rHinZZHA0CCV-99" target="y4_CQmr4rHinZZHA0CCV-125">
          <mxGeometry relative="1" as="geometry" />
        </mxCell>
        <mxCell id="y4_CQmr4rHinZZHA0CCV-99" value="Monitoring Process" style="points=[[0.25,0,0],[0.5,0,0],[0.75,0,0],[1,0.25,0],[1,0.5,0],[1,0.75,0],[0.75,1,0],[0.5,1,0],[0.25,1,0],[0,0.75,0],[0,0.5,0],[0,0.25,0]];shape=mxgraph.bpmn.task2;whiteSpace=wrap;rectStyle=rounded;size=10;html=1;container=1;expand=0;collapsible=0;taskMarker=user;" vertex="1" parent="y4_CQmr4rHinZZHA0CCV-75">
          <mxGeometry x="900" y="10" width="120" height="80" as="geometry" />
        </mxCell>
        <mxCell id="y4_CQmr4rHinZZHA0CCV-119" style="edgeStyle=orthogonalEdgeStyle;rounded=0;orthogonalLoop=1;jettySize=auto;html=1;entryX=0;entryY=0.5;entryDx=0;entryDy=0;" edge="1" parent="y4_CQmr4rHinZZHA0CCV-75" source="y4_CQmr4rHinZZHA0CCV-100" target="y4_CQmr4rHinZZHA0CCV-103">
          <mxGeometry relative="1" as="geometry">
            <Array as="points">
              <mxPoint x="550" y="140" />
            </Array>
          </mxGeometry>
        </mxCell>
        <mxCell id="y4_CQmr4rHinZZHA0CCV-100" value="" style="shape=mxgraph.bpmn.shape;html=1;verticalLabelPosition=bottom;labelBackgroundColor=#ffffff;verticalAlign=top;perimeter=rhombusPerimeter;background=gateway;outline=none;symbol=parallelGw;" vertex="1" parent="y4_CQmr4rHinZZHA0CCV-75">
          <mxGeometry x="530" y="30" width="40" height="40" as="geometry" />
        </mxCell>
        <mxCell id="y4_CQmr4rHinZZHA0CCV-102" value="" style="group" vertex="1" connectable="0" parent="y4_CQmr4rHinZZHA0CCV-75">
          <mxGeometry x="580" y="100" width="120" height="80" as="geometry" />
        </mxCell>
        <mxCell id="y4_CQmr4rHinZZHA0CCV-103" value="Receive Reject Information" style="shape=ext;rounded=1;html=1;whiteSpace=wrap;" vertex="1" parent="y4_CQmr4rHinZZHA0CCV-102">
          <mxGeometry width="120" height="80" as="geometry" />
        </mxCell>
        <mxCell id="y4_CQmr4rHinZZHA0CCV-104" value="" style="shape=message;whiteSpace=wrap;html=1;" vertex="1" parent="y4_CQmr4rHinZZHA0CCV-102">
          <mxGeometry x="10" y="5" width="20" height="15" as="geometry" />
        </mxCell>
        <mxCell id="y4_CQmr4rHinZZHA0CCV-117" style="edgeStyle=orthogonalEdgeStyle;rounded=0;orthogonalLoop=1;jettySize=auto;html=1;" edge="1" parent="y4_CQmr4rHinZZHA0CCV-75" source="y4_CQmr4rHinZZHA0CCV-115" target="y4_CQmr4rHinZZHA0CCV-95">
          <mxGeometry relative="1" as="geometry" />
        </mxCell>
        <mxCell id="y4_CQmr4rHinZZHA0CCV-115" value="" style="shape=mxgraph.bpmn.shape;html=1;verticalLabelPosition=bottom;labelBackgroundColor=#ffffff;verticalAlign=top;perimeter=ellipsePerimeter;outline=standard;symbol=general;" vertex="1" parent="y4_CQmr4rHinZZHA0CCV-75">
          <mxGeometry x="70" y="21.25" width="57.5" height="57.5" as="geometry" />
        </mxCell>
        <mxCell id="y4_CQmr4rHinZZHA0CCV-120" style="edgeStyle=orthogonalEdgeStyle;rounded=0;orthogonalLoop=1;jettySize=auto;html=1;entryX=0;entryY=0.5;entryDx=0;entryDy=0;entryPerimeter=0;" edge="1" parent="y4_CQmr4rHinZZHA0CCV-75" source="y4_CQmr4rHinZZHA0CCV-100" target="y4_CQmr4rHinZZHA0CCV-98">
          <mxGeometry relative="1" as="geometry" />
        </mxCell>
        <mxCell id="y4_CQmr4rHinZZHA0CCV-124" value="" style="group" vertex="1" connectable="0" parent="y4_CQmr4rHinZZHA0CCV-75">
          <mxGeometry x="1220" y="10" width="120" height="80" as="geometry" />
        </mxCell>
        <mxCell id="y4_CQmr4rHinZZHA0CCV-125" value="Receive Report &amp;amp; Invoice" style="shape=ext;rounded=1;html=1;whiteSpace=wrap;" vertex="1" parent="y4_CQmr4rHinZZHA0CCV-124">
          <mxGeometry width="120" height="80" as="geometry" />
        </mxCell>
        <mxCell id="y4_CQmr4rHinZZHA0CCV-126" value="" style="shape=message;whiteSpace=wrap;html=1;" vertex="1" parent="y4_CQmr4rHinZZHA0CCV-124">
          <mxGeometry x="10" y="5" width="20" height="15" as="geometry" />
        </mxCell>
        <mxCell id="y4_CQmr4rHinZZHA0CCV-130" value="Pay billing &amp;amp; Sign on completion" style="points=[[0.25,0,0],[0.5,0,0],[0.75,0,0],[1,0.25,0],[1,0.5,0],[1,0.75,0],[0.75,1,0],[0.5,1,0],[0.25,1,0],[0,0.75,0],[0,0.5,0],[0,0.25,0]];shape=mxgraph.bpmn.task2;whiteSpace=wrap;rectStyle=rounded;size=10;html=1;container=1;expand=0;collapsible=0;taskMarker=send;" vertex="1" parent="y4_CQmr4rHinZZHA0CCV-75">
          <mxGeometry x="1380" y="10" width="120" height="80" as="geometry" />
        </mxCell>
        <mxCell id="y4_CQmr4rHinZZHA0CCV-131" style="edgeStyle=orthogonalEdgeStyle;rounded=0;orthogonalLoop=1;jettySize=auto;html=1;entryX=0;entryY=0.5;entryDx=0;entryDy=0;entryPerimeter=0;" edge="1" parent="y4_CQmr4rHinZZHA0CCV-75" source="y4_CQmr4rHinZZHA0CCV-125" target="y4_CQmr4rHinZZHA0CCV-130">
          <mxGeometry relative="1" as="geometry" />
        </mxCell>
        <mxCell id="y4_CQmr4rHinZZHA0CCV-137" style="edgeStyle=orthogonalEdgeStyle;rounded=0;orthogonalLoop=1;jettySize=auto;html=1;entryX=0;entryY=0.5;entryDx=0;entryDy=0;" edge="1" parent="y4_CQmr4rHinZZHA0CCV-75" source="y4_CQmr4rHinZZHA0CCV-133" target="y4_CQmr4rHinZZHA0CCV-134">
          <mxGeometry relative="1" as="geometry" />
        </mxCell>
        <mxCell id="y4_CQmr4rHinZZHA0CCV-133" value="Provide Rating / Feedback" style="points=[[0.25,0,0],[0.5,0,0],[0.75,0,0],[1,0.25,0],[1,0.5,0],[1,0.75,0],[0.75,1,0],[0.5,1,0],[0.25,1,0],[0,0.75,0],[0,0.5,0],[0,0.25,0]];shape=mxgraph.bpmn.task2;whiteSpace=wrap;rectStyle=rounded;size=10;html=1;container=1;expand=0;collapsible=0;taskMarker=user;" vertex="1" parent="y4_CQmr4rHinZZHA0CCV-75">
          <mxGeometry x="1540" y="10" width="120" height="80" as="geometry" />
        </mxCell>
        <mxCell id="y4_CQmr4rHinZZHA0CCV-134" value="" style="shape=mxgraph.bpmn.shape;html=1;verticalLabelPosition=bottom;labelBackgroundColor=#ffffff;verticalAlign=top;perimeter=ellipsePerimeter;outline=end;symbol=general;" vertex="1" parent="y4_CQmr4rHinZZHA0CCV-75">
          <mxGeometry x="1700" y="25" width="50" height="50" as="geometry" />
        </mxCell>
        <mxCell id="y4_CQmr4rHinZZHA0CCV-135" style="edgeStyle=orthogonalEdgeStyle;rounded=0;orthogonalLoop=1;jettySize=auto;html=1;entryX=0;entryY=0.5;entryDx=0;entryDy=0;entryPerimeter=0;" edge="1" parent="y4_CQmr4rHinZZHA0CCV-75" source="y4_CQmr4rHinZZHA0CCV-130" target="y4_CQmr4rHinZZHA0CCV-133">
          <mxGeometry relative="1" as="geometry" />
        </mxCell>
        <mxCell id="y4_CQmr4rHinZZHA0CCV-140" value="" style="shape=mxgraph.bpmn.shape;html=1;verticalLabelPosition=bottom;labelBackgroundColor=#ffffff;verticalAlign=top;perimeter=ellipsePerimeter;outline=end;symbol=general;" vertex="1" parent="y4_CQmr4rHinZZHA0CCV-75">
          <mxGeometry x="730" y="115" width="50" height="50" as="geometry" />
        </mxCell>
        <mxCell id="y4_CQmr4rHinZZHA0CCV-169" style="edgeStyle=orthogonalEdgeStyle;rounded=0;orthogonalLoop=1;jettySize=auto;html=1;entryX=0;entryY=0.5;entryDx=0;entryDy=0;" edge="1" parent="y4_CQmr4rHinZZHA0CCV-75" source="y4_CQmr4rHinZZHA0CCV-103" target="y4_CQmr4rHinZZHA0CCV-140">
          <mxGeometry relative="1" as="geometry" />
        </mxCell>
        <mxCell id="y4_CQmr4rHinZZHA0CCV-77" value="" style="dashed=1;dashPattern=8 4;endArrow=blockThin;endFill=1;startArrow=oval;startFill=0;endSize=6;startSize=4;html=1;rounded=0;entryX=0.5;entryY=0;entryDx=0;entryDy=0;exitX=0.5;exitY=1;exitDx=0;exitDy=0;exitPerimeter=0;" edge="1" parent="1" source="y4_CQmr4rHinZZHA0CCV-95" target="y4_CQmr4rHinZZHA0CCV-64">
          <mxGeometry width="160" relative="1" as="geometry">
            <mxPoint x="240" y="490" as="sourcePoint" />
            <mxPoint x="370" y="510" as="targetPoint" />
          </mxGeometry>
        </mxCell>
        <mxCell id="y4_CQmr4rHinZZHA0CCV-79" value="" style="dashed=1;dashPattern=8 4;endArrow=blockThin;endFill=1;startArrow=oval;startFill=0;endSize=6;startSize=4;html=1;rounded=0;exitX=0.5;exitY=0;exitDx=0;exitDy=0;entryX=0.5;entryY=1;entryDx=0;entryDy=0;entryPerimeter=0;exitPerimeter=0;" edge="1" parent="1" source="y4_CQmr4rHinZZHA0CCV-96" target="y4_CQmr4rHinZZHA0CCV-98">
          <mxGeometry width="160" relative="1" as="geometry">
            <mxPoint x="800" y="670" as="sourcePoint" />
            <mxPoint x="800" y="490" as="targetPoint" />
          </mxGeometry>
        </mxCell>
        <mxCell id="y4_CQmr4rHinZZHA0CCV-80" value="" style="dashed=1;dashPattern=8 4;endArrow=blockThin;endFill=1;startArrow=oval;startFill=0;endSize=6;startSize=4;html=1;rounded=0;exitX=0.5;exitY=1;exitDx=0;exitDy=0;exitPerimeter=0;" edge="1" parent="1" source="y4_CQmr4rHinZZHA0CCV-130" target="y4_CQmr4rHinZZHA0CCV-32">
          <mxGeometry width="160" relative="1" as="geometry">
            <mxPoint x="1440" y="490" as="sourcePoint" />
            <mxPoint x="1500" y="630" as="targetPoint" />
          </mxGeometry>
        </mxCell>
        <mxCell id="y4_CQmr4rHinZZHA0CCV-81" value="" style="dashed=1;dashPattern=8 4;endArrow=blockThin;endFill=1;startArrow=oval;startFill=0;endSize=6;startSize=4;html=1;rounded=0;exitX=0.5;exitY=0;exitDx=0;exitDy=0;exitPerimeter=0;" edge="1" parent="1" source="y4_CQmr4rHinZZHA0CCV-127" target="y4_CQmr4rHinZZHA0CCV-125">
          <mxGeometry width="160" relative="1" as="geometry">
            <mxPoint x="1280" y="640" as="sourcePoint" />
            <mxPoint x="1279.71" y="490" as="targetPoint" />
          </mxGeometry>
        </mxCell>
        <mxCell id="y4_CQmr4rHinZZHA0CCV-82" value="I want to get technician" style="text;html=1;strokeColor=none;fillColor=none;align=center;verticalAlign=middle;whiteSpace=wrap;rounded=0;" vertex="1" parent="1">
          <mxGeometry x="190" y="560" width="100" height="30" as="geometry" />
        </mxCell>
        <mxCell id="y4_CQmr4rHinZZHA0CCV-83" value="Inform Customer" style="text;html=1;strokeColor=none;fillColor=none;align=center;verticalAlign=middle;whiteSpace=wrap;rounded=0;" vertex="1" parent="1">
          <mxGeometry x="560" y="510" width="80" height="30" as="geometry" />
        </mxCell>
        <mxCell id="y4_CQmr4rHinZZHA0CCV-76" value="" style="dashed=1;dashPattern=8 4;endArrow=blockThin;endFill=1;startArrow=oval;startFill=0;endSize=6;startSize=4;html=1;rounded=0;exitX=0.5;exitY=0;exitDx=0;exitDy=0;entryX=0.5;entryY=1;entryDx=0;entryDy=0;" edge="1" parent="1" source="y4_CQmr4rHinZZHA0CCV-48" target="y4_CQmr4rHinZZHA0CCV-103">
          <mxGeometry width="160" relative="1" as="geometry">
            <mxPoint x="630" y="530" as="sourcePoint" />
            <mxPoint x="640" y="490" as="targetPoint" />
          </mxGeometry>
        </mxCell>
        <mxCell id="y4_CQmr4rHinZZHA0CCV-47" value="" style="group" vertex="1" connectable="0" parent="1">
          <mxGeometry x="580" y="623" width="120" height="80" as="geometry" />
        </mxCell>
        <mxCell id="y4_CQmr4rHinZZHA0CCV-48" value="Reject" style="shape=ext;rounded=1;html=1;whiteSpace=wrap;" vertex="1" parent="y4_CQmr4rHinZZHA0CCV-47">
          <mxGeometry width="120" height="80" as="geometry" />
        </mxCell>
        <mxCell id="y4_CQmr4rHinZZHA0CCV-93" value="" style="points=[[0.145,0.145,0],[0.5,0,0],[0.855,0.145,0],[1,0.5,0],[0.855,0.855,0],[0.5,1,0],[0.145,0.855,0],[0,0.5,0]];shape=mxgraph.bpmn.event;html=1;verticalLabelPosition=bottom;labelBackgroundColor=#ffffff;verticalAlign=top;align=center;perimeter=ellipsePerimeter;outlineConnect=0;aspect=fixed;outline=boundInt;symbol=cancel;" vertex="1" parent="y4_CQmr4rHinZZHA0CCV-47">
          <mxGeometry x="10" y="2.5" width="20" height="20" as="geometry" />
        </mxCell>
        <mxCell id="y4_CQmr4rHinZZHA0CCV-86" value="Here is the report and your invoice" style="text;html=1;strokeColor=none;fillColor=none;align=center;verticalAlign=middle;whiteSpace=wrap;rounded=0;" vertex="1" parent="1">
          <mxGeometry x="1230" y="510" width="110" height="30" as="geometry" />
        </mxCell>
        <mxCell id="y4_CQmr4rHinZZHA0CCV-87" value="I have paid" style="text;html=1;strokeColor=none;fillColor=none;align=center;verticalAlign=middle;whiteSpace=wrap;rounded=0;" vertex="1" parent="1">
          <mxGeometry x="1385" y="560" width="110" height="30" as="geometry" />
        </mxCell>
        <mxCell id="y4_CQmr4rHinZZHA0CCV-88" value="Meet your technician" style="text;html=1;strokeColor=none;fillColor=none;align=center;verticalAlign=middle;whiteSpace=wrap;rounded=0;" vertex="1" parent="1">
          <mxGeometry x="760" y="510" width="80" height="30" as="geometry" />
        </mxCell>
        <mxCell id="y4_CQmr4rHinZZHA0CCV-92" style="edgeStyle=orthogonalEdgeStyle;rounded=0;orthogonalLoop=1;jettySize=auto;html=1;" edge="1" parent="1" source="y4_CQmr4rHinZZHA0CCV-91">
          <mxGeometry relative="1" as="geometry">
            <mxPoint x="740" y="783.0000000000002" as="targetPoint" />
          </mxGeometry>
        </mxCell>
        <mxCell id="y4_CQmr4rHinZZHA0CCV-91" value="Ticket Classification&amp;nbsp;&lt;div&gt;&amp;amp; Prioritization&lt;/div&gt;" style="points=[[0.25,0,0],[0.5,0,0],[0.75,0,0],[1,0.25,0],[1,0.5,0],[1,0.75,0],[0.75,1,0],[0.5,1,0],[0.25,1,0],[0,0.75,0],[0,0.5,0],[0,0.25,0]];shape=mxgraph.bpmn.task2;whiteSpace=wrap;rectStyle=rounded;size=10;html=1;container=1;expand=0;collapsible=0;taskMarker=user;" vertex="1" parent="1">
          <mxGeometry x="580" y="743" width="120" height="80" as="geometry" />
        </mxCell>
        <mxCell id="y4_CQmr4rHinZZHA0CCV-97" style="edgeStyle=orthogonalEdgeStyle;rounded=0;orthogonalLoop=1;jettySize=auto;html=1;entryX=0;entryY=0.5;entryDx=0;entryDy=0;" edge="1" parent="1" source="y4_CQmr4rHinZZHA0CCV-96">
          <mxGeometry relative="1" as="geometry">
            <mxPoint x="900" y="783" as="targetPoint" />
          </mxGeometry>
        </mxCell>
        <mxCell id="y4_CQmr4rHinZZHA0CCV-96" value="Scheduling &amp;amp; Assignment" style="points=[[0.25,0,0],[0.5,0,0],[0.75,0,0],[1,0.25,0],[1,0.5,0],[1,0.75,0],[0.75,1,0],[0.5,1,0],[0.25,1,0],[0,0.75,0],[0,0.5,0],[0,0.25,0]];shape=mxgraph.bpmn.task2;whiteSpace=wrap;rectStyle=rounded;size=10;html=1;container=1;expand=0;collapsible=0;taskMarker=send;" vertex="1" parent="1">
          <mxGeometry x="740" y="743" width="120" height="80" as="geometry" />
        </mxCell>
        <mxCell id="y4_CQmr4rHinZZHA0CCV-127" value="Generate Report &amp;amp; Invoice" style="points=[[0.25,0,0],[0.5,0,0],[0.75,0,0],[1,0.25,0],[1,0.5,0],[1,0.75,0],[0.75,1,0],[0.5,1,0],[0.25,1,0],[0,0.75,0],[0,0.5,0],[0,0.25,0]];shape=mxgraph.bpmn.task2;whiteSpace=wrap;rectStyle=rounded;size=10;html=1;container=1;expand=0;collapsible=0;taskMarker=send;" vertex="1" parent="1">
          <mxGeometry x="1220" y="743" width="120" height="80" as="geometry" />
        </mxCell>
        <mxCell id="y4_CQmr4rHinZZHA0CCV-128" style="edgeStyle=orthogonalEdgeStyle;rounded=0;orthogonalLoop=1;jettySize=auto;html=1;entryX=0;entryY=0.5;entryDx=0;entryDy=0;" edge="1" parent="1" source="y4_CQmr4rHinZZHA0CCV-127" target="y4_CQmr4rHinZZHA0CCV-32">
          <mxGeometry relative="1" as="geometry">
            <mxPoint x="1360" y="783" as="targetPoint" />
          </mxGeometry>
        </mxCell>
        <mxCell id="y4_CQmr4rHinZZHA0CCV-139" style="edgeStyle=orthogonalEdgeStyle;rounded=0;orthogonalLoop=1;jettySize=auto;html=1;entryX=0;entryY=0.5;entryDx=0;entryDy=0;" edge="1" parent="1" source="y4_CQmr4rHinZZHA0CCV-138" target="y4_CQmr4rHinZZHA0CCV-43">
          <mxGeometry relative="1" as="geometry" />
        </mxCell>
        <mxCell id="y4_CQmr4rHinZZHA0CCV-138" value="Validate SLA" style="points=[[0.25,0,0],[0.5,0,0],[0.75,0,0],[1,0.25,0],[1,0.5,0],[1,0.75,0],[0.75,1,0],[0.5,1,0],[0.25,1,0],[0,0.75,0],[0,0.5,0],[0,0.25,0]];shape=mxgraph.bpmn.task2;whiteSpace=wrap;rectStyle=rounded;size=10;html=1;container=1;expand=0;collapsible=0;taskMarker=service;" vertex="1" parent="1">
          <mxGeometry x="340" y="683" width="120" height="80" as="geometry" />
        </mxCell>
        <mxCell id="y4_CQmr4rHinZZHA0CCV-172" style="edgeStyle=orthogonalEdgeStyle;rounded=0;orthogonalLoop=1;jettySize=auto;html=1;entryX=0;entryY=0.5;entryDx=0;entryDy=0;" edge="1" parent="1" source="y4_CQmr4rHinZZHA0CCV-170">
          <mxGeometry relative="1" as="geometry">
            <mxPoint x="1060" y="783" as="targetPoint" />
          </mxGeometry>
        </mxCell>
        <mxCell id="y4_CQmr4rHinZZHA0CCV-170" value="Monitoring Process" style="points=[[0.25,0,0],[0.5,0,0],[0.75,0,0],[1,0.25,0],[1,0.5,0],[1,0.75,0],[0.75,1,0],[0.5,1,0],[0.25,1,0],[0,0.75,0],[0,0.5,0],[0,0.25,0]];shape=mxgraph.bpmn.task2;whiteSpace=wrap;rectStyle=rounded;size=10;html=1;container=1;expand=0;collapsible=0;taskMarker=user;" vertex="1" parent="1">
          <mxGeometry x="900" y="743" width="120" height="80" as="geometry" />
        </mxCell>
        <mxCell id="y4_CQmr4rHinZZHA0CCV-173" style="edgeStyle=orthogonalEdgeStyle;rounded=0;orthogonalLoop=1;jettySize=auto;html=1;" edge="1" parent="1" source="y4_CQmr4rHinZZHA0CCV-171" target="y4_CQmr4rHinZZHA0CCV-127">
          <mxGeometry relative="1" as="geometry" />
        </mxCell>
        <mxCell id="y4_CQmr4rHinZZHA0CCV-171" value="Quality Check" style="points=[[0.25,0,0],[0.5,0,0],[0.75,0,0],[1,0.25,0],[1,0.5,0],[1,0.75,0],[0.75,1,0],[0.5,1,0],[0.25,1,0],[0,0.75,0],[0,0.5,0],[0,0.25,0]];shape=mxgraph.bpmn.task2;whiteSpace=wrap;rectStyle=rounded;size=10;html=1;container=1;expand=0;collapsible=0;taskMarker=user;" vertex="1" parent="1">
          <mxGeometry x="1060" y="743" width="120" height="80" as="geometry" />
        </mxCell>
      </root>
    </mxGraphModel>
  </diagram>
  <diagram id="ygQETtV6ynaNNEvv7tcc" name="drafts_business-process-cycle">
    <mxGraphModel grid="1" page="1" gridSize="10" guides="1" tooltips="1" connect="1" arrows="1" fold="1" pageScale="1" pageWidth="827" pageHeight="1169" math="0" shadow="0">
      <root>
        <mxCell id="0" />
        <mxCell id="1" parent="0" />
        <mxCell id="FL2we1-E9XAxh2i5lt60-12" value="&lt;font style=&quot;font-size: 18px;&quot;&gt;&lt;b&gt;BUSINESS&lt;/b&gt;&lt;/font&gt;&lt;div&gt;&lt;font style=&quot;font-size: 18px;&quot;&gt;&lt;b&gt;PROCESS&lt;/b&gt;&lt;/font&gt;&lt;/div&gt;" style="ellipse;whiteSpace=wrap;html=1;aspect=fixed;fillColor=#e1d5e7;strokeColor=#9673a6;" vertex="1" parent="1">
          <mxGeometry x="219" y="285" width="400" height="400" as="geometry" />
        </mxCell>
        <mxCell id="FL2we1-E9XAxh2i5lt60-1" value="Process&lt;div&gt;Discovery&lt;/div&gt;" style="ellipse;whiteSpace=wrap;html=1;aspect=fixed;fillColor=#dae8fc;strokeColor=#6c8ebf;" vertex="1" parent="1">
          <mxGeometry x="379" y="250" width="80" height="80" as="geometry" />
        </mxCell>
        <mxCell id="FL2we1-E9XAxh2i5lt60-3" value="Process Implemen-&lt;div&gt;tation&lt;/div&gt;" style="ellipse;whiteSpace=wrap;html=1;aspect=fixed;fillColor=#dae8fc;strokeColor=#6c8ebf;" vertex="1" parent="1">
          <mxGeometry x="579" y="445" width="80" height="80" as="geometry" />
        </mxCell>
        <mxCell id="FL2we1-E9XAxh2i5lt60-4" value="Identifikasi Kebutuhan" style="text;html=1;align=center;verticalAlign=middle;whiteSpace=wrap;rounded=0;fontSize=9;" vertex="1" parent="1">
          <mxGeometry x="389" y="335" width="60" height="30" as="geometry" />
        </mxCell>
        <mxCell id="FL2we1-E9XAxh2i5lt60-6" value="Process&lt;div&gt;Design&lt;/div&gt;" style="ellipse;whiteSpace=wrap;html=1;aspect=fixed;fillColor=#dae8fc;strokeColor=#6c8ebf;" vertex="1" parent="1">
          <mxGeometry x="519" y="305" width="80" height="80" as="geometry" />
        </mxCell>
        <mxCell id="FL2we1-E9XAxh2i5lt60-7" value="Process Testing &amp;amp; Validation" style="ellipse;whiteSpace=wrap;html=1;aspect=fixed;fillColor=#dae8fc;strokeColor=#6c8ebf;" vertex="1" parent="1">
          <mxGeometry x="519" y="575" width="80" height="80" as="geometry" />
        </mxCell>
        <mxCell id="FL2we1-E9XAxh2i5lt60-8" value="Process Optimization" style="ellipse;whiteSpace=wrap;html=1;aspect=fixed;fillColor=#dae8fc;strokeColor=#6c8ebf;" vertex="1" parent="1">
          <mxGeometry x="239" y="575" width="80" height="80" as="geometry" />
        </mxCell>
        <mxCell id="FL2we1-E9XAxh2i5lt60-9" value="Process Monitoring &amp;amp; Analytics" style="ellipse;whiteSpace=wrap;html=1;aspect=fixed;fillColor=#dae8fc;strokeColor=#6c8ebf;" vertex="1" parent="1">
          <mxGeometry x="379" y="643.2" width="80" height="80" as="geometry" />
        </mxCell>
        <mxCell id="FL2we1-E9XAxh2i5lt60-10" value="Process Governance" style="ellipse;whiteSpace=wrap;html=1;aspect=fixed;fillColor=#dae8fc;strokeColor=#6c8ebf;" vertex="1" parent="1">
          <mxGeometry x="179" y="445" width="80" height="80" as="geometry" />
        </mxCell>
        <mxCell id="FL2we1-E9XAxh2i5lt60-11" value="Scaling /&lt;div&gt;Redesign&lt;/div&gt;" style="ellipse;whiteSpace=wrap;html=1;aspect=fixed;fillColor=#dae8fc;strokeColor=#6c8ebf;" vertex="1" parent="1">
          <mxGeometry x="239" y="305" width="80" height="80" as="geometry" />
        </mxCell>
        <mxCell id="FL2we1-E9XAxh2i5lt60-13" value="SDLC" style="text;html=1;align=center;verticalAlign=middle;whiteSpace=wrap;rounded=0;fontSize=9;" vertex="1" parent="1">
          <mxGeometry x="529" y="475" width="60" height="30" as="geometry" />
        </mxCell>
        <mxCell id="FL2we1-E9XAxh2i5lt60-15" value="BPMN" style="text;html=1;align=center;verticalAlign=middle;whiteSpace=wrap;rounded=0;fontSize=9;" vertex="1" parent="1">
          <mxGeometry x="489" y="375" width="60" height="30" as="geometry" />
        </mxCell>
        <mxCell id="FL2we1-E9XAxh2i5lt60-17" value="" style="html=1;shadow=0;dashed=0;align=center;verticalAlign=middle;shape=mxgraph.arrows2.jumpInArrow;dy=5.96;dx=21.2;arrowHead=25.72;rotation=85;fillColor=#1ba1e2;fontColor=#ffffff;strokeColor=#006EAF;" vertex="1" parent="1">
          <mxGeometry x="581.7" y="385" width="77.3" height="41.4" as="geometry" />
        </mxCell>
        <mxCell id="FL2we1-E9XAxh2i5lt60-18" value="" style="html=1;shadow=0;dashed=0;align=center;verticalAlign=middle;shape=mxgraph.arrows2.jumpInArrow;dy=5.96;dx=21.2;arrowHead=25.72;rotation=-135;fillColor=#1ba1e2;fontColor=#ffffff;strokeColor=#006EAF;" vertex="1" parent="1">
          <mxGeometry x="285" y="661" width="90" height="44.4" as="geometry" />
        </mxCell>
        <mxCell id="FL2we1-E9XAxh2i5lt60-20" value="" style="html=1;shadow=0;dashed=0;align=center;verticalAlign=middle;shape=mxgraph.arrows2.jumpInArrow;dy=5.96;dx=21.2;arrowHead=25.72;rotation=-220;fillColor=#1ba1e2;fontColor=#ffffff;strokeColor=#006EAF;" vertex="1" parent="1">
          <mxGeometry x="589" y="545" width="77.3" height="41.4" as="geometry" />
        </mxCell>
        <mxCell id="FL2we1-E9XAxh2i5lt60-21" value="" style="html=1;shadow=0;dashed=0;align=center;verticalAlign=middle;shape=mxgraph.arrows2.jumpInArrow;dy=5.96;dx=21.2;arrowHead=25.72;rotation=-100;fillColor=#1ba1e2;fontColor=#ffffff;strokeColor=#006EAF;" vertex="1" parent="1">
          <mxGeometry x="161" y="545" width="90" height="44.4" as="geometry" />
        </mxCell>
        <mxCell id="FL2we1-E9XAxh2i5lt60-25" value="" style="html=1;shadow=0;dashed=0;align=center;verticalAlign=middle;shape=mxgraph.arrows2.jumpInArrow;dy=5.96;dx=21.2;arrowHead=25.72;rotation=-55;fillColor=#1ba1e2;fontColor=#ffffff;strokeColor=#006EAF;" vertex="1" parent="1">
          <mxGeometry x="169" y="367.79999999999995" width="90" height="44.4" as="geometry" />
        </mxCell>
        <mxCell id="FL2we1-E9XAxh2i5lt60-26" value="" style="html=1;shadow=0;dashed=0;align=center;verticalAlign=middle;shape=mxgraph.arrows2.jumpInArrow;dy=5.96;dx=21.2;arrowHead=25.72;rotation=0;fillColor=#1ba1e2;fontColor=#ffffff;strokeColor=#006EAF;" vertex="1" parent="1">
          <mxGeometry x="289" y="256.6" width="90" height="44.4" as="geometry" />
        </mxCell>
        <mxCell id="FL2we1-E9XAxh2i5lt60-27" value="" style="html=1;shadow=0;dashed=0;align=center;verticalAlign=middle;shape=mxgraph.arrows2.jumpInArrow;dy=5.96;dx=21.2;arrowHead=25.72;rotation=40;fillColor=#1ba1e2;fontColor=#ffffff;strokeColor=#006EAF;" vertex="1" parent="1">
          <mxGeometry x="462.00000000000006" y="256.6" width="90" height="44.4" as="geometry" />
        </mxCell>
        <mxCell id="FL2we1-E9XAxh2i5lt60-28" value="" style="html=1;shadow=0;dashed=0;align=center;verticalAlign=middle;shape=mxgraph.arrows2.jumpInArrow;dy=5.96;dx=21.2;arrowHead=25.72;rotation=-185;fillColor=#1ba1e2;fontColor=#ffffff;strokeColor=#006EAF;" vertex="1" parent="1">
          <mxGeometry x="462" y="661" width="90" height="44.4" as="geometry" />
        </mxCell>
      </root>
    </mxGraphModel>
  </diagram>
</mxfile>
